<?xml version="1.0" encoding="UTF-8"?>
<svg id="Layer_1" data-name="Layer 1" xmlns="http://www.w3.org/2000/svg" xmlns:xlink="http://www.w3.org/1999/xlink" viewBox="0 0 300 300">
  <defs>
    <style>
      .cls-1 {
        fill: url(#linear-gradient-2);
      }

      .cls-2 {
        fill: #fff;
      }

      .cls-3 {
        fill: url(#linear-gradient-3);
      }

      .cls-4 {
        fill: url(#linear-gradient);
      }

      .cls-5 {
        fill: url(#linear-gradient-4);
      }
    </style>
    <linearGradient id="linear-gradient" x1="120.53" y1="-5.63" x2="119.48" y2="264.55" gradientUnits="userSpaceOnUse">
      <stop offset="0" stop-color="#73c8b2"/>
      <stop offset=".46" stop-color="#09c"/>
      <stop offset="1" stop-color="#3452a3"/>
    </linearGradient>
    <linearGradient id="linear-gradient-2" x1="178.45" y1="-5.4" x2="177.4" y2="264.77" gradientUnits="userSpaceOnUse">
      <stop offset="0" stop-color="#74c8b1"/>
      <stop offset=".46" stop-color="#0098cc"/>
      <stop offset="1" stop-color="#24356f"/>
    </linearGradient>
    <linearGradient id="linear-gradient-3" x1="162.59" y1="-5.47" x2="161.54" y2="264.71" gradientUnits="userSpaceOnUse">
      <stop offset="0" stop-color="#73c8b2"/>
      <stop offset=".46" stop-color="#0098cc"/>
      <stop offset="1" stop-color="#24356f"/>
    </linearGradient>
    <linearGradient id="linear-gradient-4" x1="156.15" y1="190.46" x2="156.15" y2="273.31" xlink:href="#linear-gradient-2"/>
  </defs>
  <rect class="cls-2" width="300" height="300"/>
  <g>
    <path class="cls-4" d="m121.44,214.42c12.63-3.74,25.26-6.73,36.6-13.74.71-.44,1.48-.97,1.67-1.79.28-1.2-.81-2.25-1.81-2.96-10.07-7.07-22.52-8.99-34.31-11.4-10.63-2.17-23.38-4.83-27.97-16.14-4.14-10.19,4.91-19.44,13.08-24.09,11.87-6.76,25.47-9.38,38.83-11.31,4.36-.63,27.13-2.11,25.13-9.9-1.78-6.95-11.41-6.62-16.91-6.86-15.22-.68-33.98-1.81-45.87-12.62-1.67-1.52-3.18-3.4-3.52-5.63-.35-2.33.66-4.69,2.17-6.49,9.73-11.61,28.65-10.04,42.13-11.66,3.83-.46,9.93-1.53,11-6.04,1.67-6.99-11.32-5.66-21.32-8.33-4.61-1.23-11.46-2.83-14.41-6.99-9.23-12.97,22.8-17.4,28.82-21.51,2.04-1.4,4.01-3.59,3.6-6.03-.2-1.17-.93-2.18-1.76-3.01-4.12-4.1-10.19-6.05-14.61-9.97-41.87,4.03-74.6,38.63-74.6,80.74,0,6.6,1.31,12.9,2.31,19.11,2.33,14.48,32.06,63.14,32.06,63.14l19.77,33.58c-.04-.07-.07-.11-.07-.11Z"/>
    <path class="cls-1" d="m152.09,17.61c1.38.82,21.22,12.8,11.58,19.88-4.12,3.02-8.82,5-13.56,6.81-3.27,1.25-9.1,1.67-11.47,4.46-4.28,5.04,7.06,9,10.26,9.82,7.91,2.02,16.83,1.37,23.78,6.29,2.76,1.95,5.14,4.97,4.96,8.35-.23,4.23-4.1,7-7.64,8.57-8.03,3.57-16.92,5.09-25.49,6.81-2.04.41-19.49,2.9-17.13,6.91.42.71,1.16,1.14,1.89,1.52,6.73,3.52,14.15,6.15,21.57,7.77,8.8,1.93,17.91,1.23,26.73,3.2,6.6,1.48,13.07,4.18,18.09,8.72,3.12,2.82,5.39,7.22,2.72,11.15-1.25,1.85-3.15,3.14-5.04,4.33-10.75,6.79-22.64,11.53-34.8,15.1-11.37,3.34-23.89,4.7-33.75,11.81-1.12.81-2.32,2.15-1.72,3.4.39.81,1.37,1.13,2.24,1.35,13.4,3.38,27.22,5.12,40.73,8.03,6.15,1.33,12.71,1.56,18.6,3.91,3.65,1.45,9.27,7.36,9.73,12.28l4.19-7.12s31.62-51.1,33.34-69.44c.4-4.23,1.04-8.47,1.04-12.81,0-44.19-36.04-80.09-80.86-81.09Z"/>
    <path class="cls-3" d="m154.12,256.17c-.02.09.1.13.14.05l22.05-37.46s0-.02-.01-.01c-.8.84-5.09,1.58-5.99,1.9-4.43,1.56-8.85,3.26-13.07,5.35-3.92,1.94-8.81,4.03-9.9,8.75-.96,4.17.76,8.63,2.68,12.26,1.07,2.01,4.61,6.41,4.1,9.16Z"/>
  </g>
  <path class="cls-5" d="m180.82,234.01c42.74,4.92,49.79,32.97,4.8,44.18-22.11,4.99-45.74,4.66-67.37-2.49-10.09-3.53-26.34-11.8-21.28-24.87,4.79-10.1,19.34-14,29.41-15.78-6.32,2.02-12.49,4.48-18.04,8.06-24.34,16.71,8.63,28.43,24.17,30.53,17.09,2.75,34.9,2.62,51.84-.97,8.21-1.83,16.61-4.39,23.24-9.66,7.98-6.46,4.62-13.78-2.64-18.77-7.09-5.07-15.71-7.89-24.12-10.22h0Z"/>
</svg>